STARTFONT 2.1
FONT -Fondu--Medium-R-Normal--18-170-75-75-P-80-MacRoman-1
SIZE 17 75 75
FONTBOUNDINGBOX 11 18 0 -4
COMMENT Created by Fondu from a mac NFNT/FONT resource
STARTPROPERTIES 17
FOUNDRY "Fondu"
FAMILY_NAME ""
WEIGHT_NAME "Medium"
SLANT "R"
SETWIDTH_NAME "Normal"
ADD_STYLE_NAME ""
PIXEL_SIZE 18
POINT_SIZE 170
RESOLUTION_X 75
RESOLUTION_Y 75
SPACING "P"
AVERAGE_WIDTH 80
CHARSET_REGISTRY "MacRoman"
CHARSET_ENCODING "1"
FONT_ASCENT 14
FONT_DESCENT 4
FACE_NAME "nameless"
ENDPROPERTIES
CHARS 228
STARTCHAR eth
ENCODING 2
SWIDTH 0 0
DWIDTH 0 0
BBX 0 0 0 -4
BITMAP
ENDCHAR
STARTCHAR Lslash
ENCODING 3
SWIDTH 0 0
DWIDTH 0 0
BBX 0 0 0 -4
BITMAP
ENDCHAR
STARTCHAR lslash
ENCODING 4
SWIDTH 0 0
DWIDTH 0 0
BBX 0 0 0 -4
BITMAP
ENDCHAR
STARTCHAR Scaron
ENCODING 5
SWIDTH 0 0
DWIDTH 0 0
BBX 0 0 0 -4
BITMAP
ENDCHAR
STARTCHAR space
ENCODING 32
SWIDTH 222 0
DWIDTH 4 0
BBX 0 0 4 -4
BITMAP
ENDCHAR
STARTCHAR exclam
ENCODING 33
SWIDTH 222 0
DWIDTH 4 0
BBX 1 10 2 0
BITMAP
80
80
80
80
80
80
80
80
00
80
ENDCHAR
STARTCHAR quotedbl
ENCODING 34
SWIDTH 333 0
DWIDTH 6 0
BBX 4 3 1 7
BITMAP
90
90
90
ENDCHAR
STARTCHAR numbersign
ENCODING 35
SWIDTH 500 0
DWIDTH 9 0
BBX 7 8 1 3
BITMAP
14
14
7E
28
28
FC
50
50
ENDCHAR
STARTCHAR dollar
ENCODING 36
SWIDTH 388 0
DWIDTH 7 0
BBX 5 12 1 -1
BITMAP
20
70
A8
A0
A0
60
30
28
28
A8
70
20
ENDCHAR
STARTCHAR percent
ENCODING 37
SWIDTH 611 0
DWIDTH 11 0
BBX 9 11 1 0
BITMAP
6F80
9080
9100
9200
6400
0800
1300
2480
4480
8480
8300
ENDCHAR
STARTCHAR ampersand
ENCODING 38
SWIDTH 611 0
DWIDTH 11 0
BBX 9 11 1 0
BITMAP
3000
4800
4800
5000
2000
5000
8900
8500
8200
4500
3880
ENDCHAR
STARTCHAR quotesingle
ENCODING 39
SWIDTH 166 0
DWIDTH 3 0
BBX 1 3 1 8
BITMAP
80
80
80
ENDCHAR
STARTCHAR parenleft
ENCODING 40
SWIDTH 333 0
DWIDTH 6 0
BBX 3 13 1 -1
BITMAP
20
40
40
80
80
80
80
80
80
80
40
40
20
ENDCHAR
STARTCHAR parenright
ENCODING 41
SWIDTH 333 0
DWIDTH 6 0
BBX 3 13 2 -1
BITMAP
80
40
40
20
20
20
20
20
20
20
40
40
80
ENDCHAR
STARTCHAR asterisk
ENCODING 42
SWIDTH 500 0
DWIDTH 9 0
BBX 7 7 1 4
BITMAP
10
92
54
38
10
28
44
ENDCHAR
STARTCHAR plus
ENCODING 43
SWIDTH 500 0
DWIDTH 9 0
BBX 7 7 1 2
BITMAP
10
10
10
FE
10
10
10
ENDCHAR
STARTCHAR comma
ENCODING 44
SWIDTH 222 0
DWIDTH 4 0
BBX 2 4 1 -3
BITMAP
40
40
40
80
ENDCHAR
STARTCHAR hyphen
ENCODING 45
SWIDTH 444 0
DWIDTH 8 0
BBX 6 1 1 5
BITMAP
FC
ENDCHAR
STARTCHAR period
ENCODING 46
SWIDTH 166 0
DWIDTH 3 0
BBX 1 1 1 0
BITMAP
80
ENDCHAR
STARTCHAR slash
ENCODING 47
SWIDTH 388 0
DWIDTH 7 0
BBX 5 10 1 0
BITMAP
08
08
10
10
20
20
40
40
80
80
ENDCHAR
STARTCHAR zero
ENCODING 48
SWIDTH 500 0
DWIDTH 9 0
BBX 7 11 1 0
BITMAP
38
44
82
82
82
82
82
82
82
44
38
ENDCHAR
STARTCHAR one
ENCODING 49
SWIDTH 500 0
DWIDTH 9 0
BBX 2 11 3 0
BITMAP
40
C0
40
40
40
40
40
40
40
40
40
ENDCHAR
STARTCHAR two
ENCODING 50
SWIDTH 500 0
DWIDTH 9 0
BBX 7 11 1 0
BITMAP
38
44
82
02
02
04
08
10
20
40
FE
ENDCHAR
STARTCHAR three
ENCODING 51
SWIDTH 500 0
DWIDTH 9 0
BBX 7 11 1 0
BITMAP
FE
04
08
10
38
04
02
02
02
84
78
ENDCHAR
STARTCHAR four
ENCODING 52
SWIDTH 500 0
DWIDTH 9 0
BBX 7 11 1 0
BITMAP
04
0C
14
24
44
84
FE
04
04
04
04
ENDCHAR
STARTCHAR five
ENCODING 53
SWIDTH 500 0
DWIDTH 9 0
BBX 7 11 1 0
BITMAP
FE
80
80
80
F8
04
02
02
02
84
78
ENDCHAR
STARTCHAR six
ENCODING 54
SWIDTH 500 0
DWIDTH 9 0
BBX 7 11 1 0
BITMAP
38
40
80
B8
C4
82
82
82
82
44
38
ENDCHAR
STARTCHAR seven
ENCODING 55
SWIDTH 500 0
DWIDTH 9 0
BBX 7 11 1 0
BITMAP
FE
02
02
04
04
08
08
10
10
10
10
ENDCHAR
STARTCHAR eight
ENCODING 56
SWIDTH 500 0
DWIDTH 9 0
BBX 7 11 1 0
BITMAP
38
44
44
44
38
44
82
82
82
44
38
ENDCHAR
STARTCHAR nine
ENCODING 57
SWIDTH 500 0
DWIDTH 9 0
BBX 7 11 1 0
BITMAP
38
44
82
82
82
82
46
3A
02
04
38
ENDCHAR
STARTCHAR colon
ENCODING 58
SWIDTH 166 0
DWIDTH 3 0
BBX 1 7 1 0
BITMAP
80
00
00
00
00
00
80
ENDCHAR
STARTCHAR semicolon
ENCODING 59
SWIDTH 222 0
DWIDTH 4 0
BBX 2 10 1 -3
BITMAP
40
00
00
00
00
00
40
40
40
80
ENDCHAR
STARTCHAR less
ENCODING 60
SWIDTH 388 0
DWIDTH 7 0
BBX 4 7 1 2
BITMAP
10
20
40
80
40
20
10
ENDCHAR
STARTCHAR equal
ENCODING 61
SWIDTH 611 0
DWIDTH 11 0
BBX 7 4 2 3
BITMAP
FE
00
00
FE
ENDCHAR
STARTCHAR greater
ENCODING 62
SWIDTH 388 0
DWIDTH 7 0
BBX 4 7 1 2
BITMAP
80
40
20
10
20
40
80
ENDCHAR
STARTCHAR question
ENCODING 63
SWIDTH 444 0
DWIDTH 8 0
BBX 6 11 1 0
BITMAP
78
84
04
04
08
10
20
20
20
00
20
ENDCHAR
STARTCHAR at
ENCODING 64
SWIDTH 666 0
DWIDTH 12 0
BBX 10 10 1 0
BITMAP
3F00
4080
8E40
9240
9240
9240
9240
8D80
4000
3C00
ENDCHAR
STARTCHAR A
ENCODING 65
SWIDTH 611 0
DWIDTH 11 0
BBX 9 11 1 0
BITMAP
0800
0800
0800
1400
1400
2200
2200
7F00
4100
8080
8080
ENDCHAR
STARTCHAR B
ENCODING 66
SWIDTH 500 0
DWIDTH 9 0
BBX 7 11 1 0
BITMAP
F8
84
84
84
F8
84
82
82
82
84
F8
ENDCHAR
STARTCHAR C
ENCODING 67
SWIDTH 500 0
DWIDTH 9 0
BBX 7 11 1 0
BITMAP
3C
42
80
80
80
80
80
80
80
42
3C
ENDCHAR
STARTCHAR D
ENCODING 68
SWIDTH 500 0
DWIDTH 9 0
BBX 7 11 1 0
BITMAP
F8
84
82
82
82
82
82
82
82
84
F8
ENDCHAR
STARTCHAR E
ENCODING 69
SWIDTH 444 0
DWIDTH 8 0
BBX 6 11 1 0
BITMAP
FC
80
80
80
80
F8
80
80
80
80
FC
ENDCHAR
STARTCHAR F
ENCODING 70
SWIDTH 444 0
DWIDTH 8 0
BBX 6 11 1 0
BITMAP
FC
80
80
80
80
F8
80
80
80
80
80
ENDCHAR
STARTCHAR G
ENCODING 71
SWIDTH 555 0
DWIDTH 10 0
BBX 8 11 1 0
BITMAP
3C
42
80
80
80
8F
81
81
81
42
3C
ENDCHAR
STARTCHAR H
ENCODING 72
SWIDTH 500 0
DWIDTH 9 0
BBX 7 11 1 0
BITMAP
82
82
82
82
82
FE
82
82
82
82
82
ENDCHAR
STARTCHAR I
ENCODING 73
SWIDTH 277 0
DWIDTH 5 0
BBX 1 11 2 0
BITMAP
80
80
80
80
80
80
80
80
80
80
80
ENDCHAR
STARTCHAR J
ENCODING 74
SWIDTH 444 0
DWIDTH 8 0
BBX 7 11 0 0
BITMAP
02
02
02
02
02
02
02
82
82
44
38
ENDCHAR
STARTCHAR K
ENCODING 75
SWIDTH 500 0
DWIDTH 9 0
BBX 7 11 1 0
BITMAP
82
84
88
90
A0
C0
A0
90
88
84
82
ENDCHAR
STARTCHAR L
ENCODING 76
SWIDTH 444 0
DWIDTH 8 0
BBX 6 11 1 0
BITMAP
80
80
80
80
80
80
80
80
80
80
FC
ENDCHAR
STARTCHAR M
ENCODING 77
SWIDTH 611 0
DWIDTH 11 0
BBX 9 11 1 0
BITMAP
8080
C180
A280
9480
8880
8080
8080
8080
8080
8080
8080
ENDCHAR
STARTCHAR N
ENCODING 78
SWIDTH 555 0
DWIDTH 10 0
BBX 8 11 1 0
BITMAP
C1
C1
A1
A1
91
89
89
85
83
83
81
ENDCHAR
STARTCHAR O
ENCODING 79
SWIDTH 555 0
DWIDTH 10 0
BBX 8 11 1 0
BITMAP
3C
42
81
81
81
81
81
81
81
42
3C
ENDCHAR
STARTCHAR P
ENCODING 80
SWIDTH 500 0
DWIDTH 9 0
BBX 7 11 1 0
BITMAP
F8
84
82
82
82
84
F8
80
80
80
80
ENDCHAR
STARTCHAR Q
ENCODING 81
SWIDTH 555 0
DWIDTH 10 0
BBX 8 13 1 -2
BITMAP
3C
42
81
81
81
81
81
81
81
42
3C
08
07
ENDCHAR
STARTCHAR R
ENCODING 82
SWIDTH 555 0
DWIDTH 10 0
BBX 7 11 1 0
BITMAP
F8
84
82
82
84
F8
88
84
84
82
82
ENDCHAR
STARTCHAR S
ENCODING 83
SWIDTH 500 0
DWIDTH 9 0
BBX 7 11 1 0
BITMAP
38
44
82
80
40
38
04
02
82
44
38
ENDCHAR
STARTCHAR T
ENCODING 84
SWIDTH 500 0
DWIDTH 9 0
BBX 7 11 1 0
BITMAP
FE
10
10
10
10
10
10
10
10
10
10
ENDCHAR
STARTCHAR U
ENCODING 85
SWIDTH 555 0
DWIDTH 10 0
BBX 8 11 1 0
BITMAP
81
81
81
81
81
81
81
81
81
42
3C
ENDCHAR
STARTCHAR V
ENCODING 86
SWIDTH 611 0
DWIDTH 11 0
BBX 9 11 1 0
BITMAP
8080
8080
4100
4100
2200
2200
1400
1400
0800
0800
0800
ENDCHAR
STARTCHAR W
ENCODING 87
SWIDTH 722 0
DWIDTH 13 0
BBX 11 11 1 0
BITMAP
8020
8020
4440
4440
4440
2A80
2A80
2A80
1100
1100
1100
ENDCHAR
STARTCHAR X
ENCODING 88
SWIDTH 500 0
DWIDTH 9 0
BBX 7 11 1 0
BITMAP
82
82
44
44
28
10
28
44
44
82
82
ENDCHAR
STARTCHAR Y
ENCODING 89
SWIDTH 500 0
DWIDTH 9 0
BBX 7 11 1 0
BITMAP
82
82
44
44
28
28
10
10
10
10
10
ENDCHAR
STARTCHAR Z
ENCODING 90
SWIDTH 500 0
DWIDTH 9 0
BBX 7 11 1 0
BITMAP
FE
02
04
08
08
10
20
20
40
80
FE
ENDCHAR
STARTCHAR bracketleft
ENCODING 91
SWIDTH 277 0
DWIDTH 5 0
BBX 3 13 1 -1
BITMAP
E0
80
80
80
80
80
80
80
80
80
80
80
E0
ENDCHAR
STARTCHAR backslash
ENCODING 92
SWIDTH 388 0
DWIDTH 7 0
BBX 5 10 1 0
BITMAP
80
80
40
40
20
20
10
10
08
08
ENDCHAR
STARTCHAR bracketright
ENCODING 93
SWIDTH 277 0
DWIDTH 5 0
BBX 3 13 1 -1
BITMAP
E0
20
20
20
20
20
20
20
20
20
20
20
E0
ENDCHAR
STARTCHAR asciicircum
ENCODING 94
SWIDTH 388 0
DWIDTH 7 0
BBX 5 6 1 4
BITMAP
20
20
50
50
88
88
ENDCHAR
STARTCHAR underscore
ENCODING 95
SWIDTH 500 0
DWIDTH 9 0
BBX 9 1 0 0
BITMAP
FF80
ENDCHAR
STARTCHAR grave
ENCODING 96
SWIDTH 277 0
DWIDTH 5 0
BBX 3 3 1 9
BITMAP
80
40
20
ENDCHAR
STARTCHAR a
ENCODING 97
SWIDTH 444 0
DWIDTH 8 0
BBX 6 8 1 0
BITMAP
78
84
04
7C
84
84
8C
74
ENDCHAR
STARTCHAR b
ENCODING 98
SWIDTH 500 0
DWIDTH 9 0
BBX 7 11 1 0
BITMAP
80
80
80
B8
C4
82
82
82
82
C4
B8
ENDCHAR
STARTCHAR c
ENCODING 99
SWIDTH 444 0
DWIDTH 8 0
BBX 6 8 1 0
BITMAP
38
44
80
80
80
80
44
38
ENDCHAR
STARTCHAR d
ENCODING 100
SWIDTH 500 0
DWIDTH 9 0
BBX 7 11 1 0
BITMAP
02
02
02
3A
46
82
82
82
82
46
3A
ENDCHAR
STARTCHAR e
ENCODING 101
SWIDTH 500 0
DWIDTH 9 0
BBX 7 8 1 0
BITMAP
38
44
82
FE
80
80
44
38
ENDCHAR
STARTCHAR f
ENCODING 102
SWIDTH 333 0
DWIDTH 6 0
BBX 4 11 1 0
BITMAP
30
40
40
F0
40
40
40
40
40
40
40
ENDCHAR
STARTCHAR g
ENCODING 103
SWIDTH 500 0
DWIDTH 9 0
BBX 7 11 1 -3
BITMAP
3A
46
82
82
82
82
46
3A
02
84
78
ENDCHAR
STARTCHAR h
ENCODING 104
SWIDTH 444 0
DWIDTH 8 0
BBX 6 11 1 0
BITMAP
80
80
80
B8
C4
84
84
84
84
84
84
ENDCHAR
STARTCHAR i
ENCODING 105
SWIDTH 277 0
DWIDTH 5 0
BBX 1 11 2 0
BITMAP
80
80
00
80
80
80
80
80
80
80
80
ENDCHAR
STARTCHAR j
ENCODING 106
SWIDTH 277 0
DWIDTH 5 0
BBX 3 14 0 -3
BITMAP
20
20
00
20
20
20
20
20
20
20
20
20
20
C0
ENDCHAR
STARTCHAR k
ENCODING 107
SWIDTH 500 0
DWIDTH 9 0
BBX 7 11 1 0
BITMAP
80
80
80
84
88
90
A0
D0
88
84
82
ENDCHAR
STARTCHAR l
ENCODING 108
SWIDTH 277 0
DWIDTH 5 0
BBX 2 11 1 0
BITMAP
C0
40
40
40
40
40
40
40
40
40
40
ENDCHAR
STARTCHAR m
ENCODING 109
SWIDTH 722 0
DWIDTH 13 0
BBX 11 8 1 0
BITMAP
B9C0
C620
8420
8420
8420
8420
8420
8420
ENDCHAR
STARTCHAR n
ENCODING 110
SWIDTH 444 0
DWIDTH 8 0
BBX 6 8 1 0
BITMAP
B8
C4
84
84
84
84
84
84
ENDCHAR
STARTCHAR o
ENCODING 111
SWIDTH 500 0
DWIDTH 9 0
BBX 7 8 1 0
BITMAP
38
44
82
82
82
82
44
38
ENDCHAR
STARTCHAR p
ENCODING 112
SWIDTH 500 0
DWIDTH 9 0
BBX 7 11 1 -3
BITMAP
B8
C4
82
82
82
82
C4
B8
80
80
80
ENDCHAR
STARTCHAR q
ENCODING 113
SWIDTH 500 0
DWIDTH 9 0
BBX 7 11 1 -3
BITMAP
3A
46
82
82
82
82
46
3A
02
02
02
ENDCHAR
STARTCHAR r
ENCODING 114
SWIDTH 388 0
DWIDTH 7 0
BBX 6 8 1 0
BITMAP
B8
C4
80
80
80
80
80
80
ENDCHAR
STARTCHAR s
ENCODING 115
SWIDTH 444 0
DWIDTH 8 0
BBX 6 8 1 0
BITMAP
78
84
80
78
04
04
84
78
ENDCHAR
STARTCHAR t
ENCODING 116
SWIDTH 388 0
DWIDTH 7 0
BBX 5 11 1 0
BITMAP
40
40
40
F0
40
40
40
40
40
48
30
ENDCHAR
STARTCHAR u
ENCODING 117
SWIDTH 444 0
DWIDTH 8 0
BBX 6 8 1 0
BITMAP
84
84
84
84
84
84
8C
74
ENDCHAR
STARTCHAR v
ENCODING 118
SWIDTH 500 0
DWIDTH 9 0
BBX 7 8 1 0
BITMAP
82
82
44
44
28
28
10
10
ENDCHAR
STARTCHAR w
ENCODING 119
SWIDTH 611 0
DWIDTH 11 0
BBX 9 8 1 0
BITMAP
8880
8880
4900
5500
5500
2200
2200
2200
ENDCHAR
STARTCHAR x
ENCODING 120
SWIDTH 500 0
DWIDTH 9 0
BBX 7 8 1 0
BITMAP
82
44
28
10
10
28
44
82
ENDCHAR
STARTCHAR y
ENCODING 121
SWIDTH 500 0
DWIDTH 9 0
BBX 8 12 0 -4
BITMAP
41
41
22
22
14
14
08
08
10
10
20
C0
ENDCHAR
STARTCHAR z
ENCODING 122
SWIDTH 444 0
DWIDTH 8 0
BBX 6 8 1 0
BITMAP
FC
04
08
10
20
40
80
FC
ENDCHAR
STARTCHAR braceleft
ENCODING 123
SWIDTH 277 0
DWIDTH 5 0
BBX 3 12 1 -1
BITMAP
20
40
40
40
40
80
40
40
40
40
40
20
ENDCHAR
STARTCHAR bar
ENCODING 124
SWIDTH 166 0
DWIDTH 3 0
BBX 1 12 1 -1
BITMAP
80
80
80
80
80
80
80
80
80
80
80
80
ENDCHAR
STARTCHAR braceright
ENCODING 125
SWIDTH 277 0
DWIDTH 5 0
BBX 3 12 1 -1
BITMAP
80
40
40
40
40
20
40
40
40
40
40
80
ENDCHAR
STARTCHAR asciitilde
ENCODING 126
SWIDTH 500 0
DWIDTH 9 0
BBX 7 2 1 8
BITMAP
72
8C
ENDCHAR
STARTCHAR char007f
ENCODING 127
SWIDTH 0 0
DWIDTH 0 0
BBX 0 0 0 -4
BITMAP
ENDCHAR
STARTCHAR Adieresis
ENCODING 128
SWIDTH 611 0
DWIDTH 11 0
BBX 9 13 1 0
BITMAP
2200
0000
0800
0800
0800
1400
1400
2200
2200
7F00
4100
8080
8080
ENDCHAR
STARTCHAR Aring
ENCODING 129
SWIDTH 611 0
DWIDTH 11 0
BBX 9 13 1 0
BITMAP
7F00
0000
0800
0800
0800
1400
1400
2200
2200
7F00
4100
8080
8080
ENDCHAR
STARTCHAR Ccedilla
ENCODING 130
SWIDTH 444 0
DWIDTH 8 0
BBX 6 11 1 0
BITMAP
FC
00
00
78
84
3C
44
84
84
8C
74
ENDCHAR
STARTCHAR Eacute
ENCODING 131
SWIDTH 444 0
DWIDTH 8 0
BBX 6 14 1 0
BITMAP
10
20
00
FC
80
80
80
80
F8
80
80
80
80
FC
ENDCHAR
STARTCHAR Ntilde
ENCODING 132
SWIDTH 611 0
DWIDTH 11 0
BBX 9 14 1 -3
BITMAP
0800
0800
0800
1400
1400
2200
2200
7F00
4100
8080
8080
0080
0100
0180
ENDCHAR
STARTCHAR Odieresis
ENCODING 133
SWIDTH 555 0
DWIDTH 10 0
BBX 8 13 1 0
BITMAP
24
00
3C
42
81
81
81
81
81
81
81
42
3C
ENDCHAR
STARTCHAR Udieresis
ENCODING 134
SWIDTH 555 0
DWIDTH 10 0
BBX 8 13 1 0
BITMAP
24
00
81
81
81
81
81
81
81
81
81
42
3C
ENDCHAR
STARTCHAR aacute
ENCODING 135
SWIDTH 444 0
DWIDTH 8 0
BBX 6 11 1 0
BITMAP
10
20
00
78
84
3C
44
84
84
8C
74
ENDCHAR
STARTCHAR agrave
ENCODING 136
SWIDTH 444 0
DWIDTH 8 0
BBX 6 11 1 -3
BITMAP
78
84
3C
44
84
84
8C
74
04
08
0C
ENDCHAR
STARTCHAR acircumflex
ENCODING 137
SWIDTH 500 0
DWIDTH 9 0
BBX 7 14 1 0
BITMAP
24
18
00
3C
42
80
80
80
80
80
80
80
42
3C
ENDCHAR
STARTCHAR adieresis
ENCODING 138
SWIDTH 444 0
DWIDTH 8 0
BBX 6 11 1 0
BITMAP
48
00
00
78
84
3C
44
84
84
8C
74
ENDCHAR
STARTCHAR atilde
ENCODING 139
SWIDTH 444 0
DWIDTH 8 0
BBX 6 11 1 0
BITMAP
28
10
00
38
44
80
80
80
80
44
38
ENDCHAR
STARTCHAR aring
ENCODING 140
SWIDTH 500 0
DWIDTH 9 0
BBX 7 14 1 0
BITMAP
08
10
00
3C
42
80
80
80
80
80
80
80
42
3C
ENDCHAR
STARTCHAR ccedilla
ENCODING 141
SWIDTH 444 0
DWIDTH 8 0
BBX 6 11 1 0
BITMAP
08
10
00
38
44
80
80
80
80
44
38
ENDCHAR
STARTCHAR eacute
ENCODING 142
SWIDTH 500 0
DWIDTH 9 0
BBX 7 11 1 0
BITMAP
08
10
00
38
44
82
FE
80
80
44
38
ENDCHAR
STARTCHAR egrave
ENCODING 143
SWIDTH 500 0
DWIDTH 9 0
BBX 7 14 1 0
BITMAP
08
10
00
FE
02
04
08
08
10
20
20
40
80
FE
ENDCHAR
STARTCHAR ecircumflex
ENCODING 144
SWIDTH 444 0
DWIDTH 8 0
BBX 6 11 1 0
BITMAP
10
20
00
FC
04
08
10
20
40
80
FC
ENDCHAR
STARTCHAR edieresis
ENCODING 145
SWIDTH 500 0
DWIDTH 9 0
BBX 7 14 1 0
BITMAP
48
30
00
F8
84
82
82
82
82
82
82
82
84
F8
ENDCHAR
STARTCHAR iacute
ENCODING 146
SWIDTH 277 0
DWIDTH 5 0
BBX 3 11 1 0
BITMAP
20
40
00
C0
40
40
40
40
40
40
40
ENDCHAR
STARTCHAR igrave
ENCODING 147
SWIDTH 500 0
DWIDTH 9 0
BBX 9 13 1 0
BITMAP
0080
0080
0280
0300
0200
3A00
4600
8200
8200
8200
8200
4600
3A00
ENDCHAR
STARTCHAR icircumflex
ENCODING 148
SWIDTH 444 0
DWIDTH 8 0
BBX 6 13 1 0
BITMAP
FC
00
FC
80
80
80
80
F8
80
80
80
80
FC
ENDCHAR
STARTCHAR idieresis
ENCODING 149
SWIDTH 500 0
DWIDTH 9 0
BBX 7 11 1 0
BITMAP
7C
00
00
38
44
82
FE
80
80
44
38
ENDCHAR
STARTCHAR ntilde
ENCODING 150
SWIDTH 444 0
DWIDTH 8 0
BBX 6 14 1 0
BITMAP
20
20
00
FC
80
80
80
80
F8
80
80
80
80
FC
ENDCHAR
STARTCHAR oacute
ENCODING 151
SWIDTH 500 0
DWIDTH 9 0
BBX 7 11 1 0
BITMAP
08
10
00
38
44
82
82
82
82
44
38
ENDCHAR
STARTCHAR ograve
ENCODING 152
SWIDTH 500 0
DWIDTH 9 0
BBX 7 11 1 0
BITMAP
10
10
00
38
44
82
FE
80
80
44
38
ENDCHAR
STARTCHAR ocircumflex
ENCODING 153
SWIDTH 500 0
DWIDTH 9 0
BBX 7 12 1 0
BITMAP
10
28
44
00
38
44
82
82
82
82
44
38
ENDCHAR
STARTCHAR odieresis
ENCODING 154
SWIDTH 500 0
DWIDTH 9 0
BBX 7 11 1 0
BITMAP
44
00
00
38
44
82
82
82
82
44
38
ENDCHAR
STARTCHAR otilde
ENCODING 155
SWIDTH 500 0
DWIDTH 9 0
BBX 7 11 1 0
BITMAP
32
4C
00
38
44
82
82
82
82
44
38
ENDCHAR
STARTCHAR uacute
ENCODING 156
SWIDTH 444 0
DWIDTH 8 0
BBX 6 11 1 0
BITMAP
10
20
00
84
84
84
84
84
84
8C
74
ENDCHAR
STARTCHAR ugrave
ENCODING 157
SWIDTH 444 0
DWIDTH 8 0
BBX 6 14 1 0
BITMAP
48
30
00
FC
80
80
80
80
F8
80
80
80
80
FC
ENDCHAR
STARTCHAR ucircumflex
ENCODING 158
SWIDTH 500 0
DWIDTH 9 0
BBX 7 11 1 0
BITMAP
28
10
00
38
44
82
FE
80
80
44
38
ENDCHAR
STARTCHAR udieresis
ENCODING 159
SWIDTH 444 0
DWIDTH 8 0
BBX 6 11 1 0
BITMAP
48
00
00
84
84
84
84
84
84
8C
74
ENDCHAR
STARTCHAR dagger
ENCODING 160
SWIDTH 277 0
DWIDTH 5 0
BBX 3 5 1 7
BITMAP
40
E0
40
40
40
ENDCHAR
STARTCHAR degree
ENCODING 161
SWIDTH 333 0
DWIDTH 6 0
BBX 4 4 1 7
BITMAP
60
90
90
60
ENDCHAR
STARTCHAR cent
ENCODING 162
SWIDTH 444 0
DWIDTH 8 0
BBX 6 14 1 -3
BITMAP
FC
80
80
80
80
F8
80
80
80
80
FC
08
10
18
ENDCHAR
STARTCHAR sterling
ENCODING 163
SWIDTH 500 0
DWIDTH 9 0
BBX 7 11 1 0
BITMAP
38
44
40
40
F0
40
40
40
42
42
FC
ENDCHAR
STARTCHAR section
ENCODING 164
SWIDTH 500 0
DWIDTH 9 0
BBX 7 11 1 0
BITMAP
7C
82
80
60
98
44
32
0C
02
82
7C
ENDCHAR
STARTCHAR bullet
ENCODING 165
SWIDTH 500 0
DWIDTH 9 0
BBX 7 7 1 2
BITMAP
7C
FE
FE
FE
FE
FE
7C
ENDCHAR
STARTCHAR paragraph
ENCODING 166
SWIDTH 500 0
DWIDTH 9 0
BBX 7 11 1 0
BITMAP
3E
4A
8A
8A
8A
8A
4A
3E
0A
0A
0A
ENDCHAR
STARTCHAR germandbls
ENCODING 167
SWIDTH 555 0
DWIDTH 10 0
BBX 8 11 1 0
BITMAP
1C
22
42
44
4C
42
41
41
41
42
CC
ENDCHAR
STARTCHAR registered
ENCODING 168
SWIDTH 611 0
DWIDTH 11 0
BBX 9 9 1 0
BITMAP
3E00
4100
BC80
A280
A280
BC80
A280
4100
3E00
ENDCHAR
STARTCHAR copyright
ENCODING 169
SWIDTH 611 0
DWIDTH 11 0
BBX 9 9 1 0
BITMAP
3E00
4100
9C80
A280
A080
A280
9C80
4100
3E00
ENDCHAR
STARTCHAR trademark
ENCODING 170
SWIDTH 666 0
DWIDTH 12 0
BBX 11 4 0 7
BITMAP
FA20
2360
22A0
2220
ENDCHAR
STARTCHAR acute
ENCODING 171
SWIDTH 500 0
DWIDTH 9 0
BBX 7 11 1 -3
BITMAP
38
44
82
FE
80
80
44
38
08
10
18
ENDCHAR
STARTCHAR dieresis
ENCODING 172
SWIDTH 444 0
DWIDTH 8 0
BBX 4 1 2 12
BITMAP
90
ENDCHAR
STARTCHAR notequal
ENCODING 173
SWIDTH 500 0
DWIDTH 9 0
BBX 7 8 1 1
BITMAP
08
08
FE
10
10
FE
20
20
ENDCHAR
STARTCHAR AE
ENCODING 174
SWIDTH 500 0
DWIDTH 9 0
BBX 7 15 1 -3
BITMAP
08
10
10
00
3A
46
82
82
82
82
46
3A
02
04
38
ENDCHAR
STARTCHAR Oslash
ENCODING 175
SWIDTH 277 0
DWIDTH 5 0
BBX 3 14 1 -3
BITMAP
40
40
40
40
40
40
40
40
40
40
40
40
80
60
ENDCHAR
STARTCHAR infinity
ENCODING 176
SWIDTH 277 0
DWIDTH 5 0
BBX 3 14 1 -3
BITMAP
40
00
00
C0
40
40
40
40
40
40
40
40
80
60
ENDCHAR
STARTCHAR plusminus
ENCODING 177
SWIDTH 277 0
DWIDTH 5 0
BBX 3 13 1 0
BITMAP
E0
00
40
40
40
40
40
40
40
40
40
40
40
ENDCHAR
STARTCHAR lessequal
ENCODING 178
SWIDTH 388 0
DWIDTH 7 0
BBX 5 8 1 1
BITMAP
10
20
40
80
40
20
10
F8
ENDCHAR
STARTCHAR greaterequal
ENCODING 179
SWIDTH 388 0
DWIDTH 7 0
BBX 5 8 1 1
BITMAP
80
40
20
10
20
40
80
F8
ENDCHAR
STARTCHAR yen
ENCODING 180
SWIDTH 277 0
DWIDTH 5 0
BBX 3 11 1 0
BITMAP
E0
00
00
C0
40
40
40
40
40
40
40
ENDCHAR
STARTCHAR mu
ENCODING 181
SWIDTH 500 0
DWIDTH 9 0
BBX 7 15 1 -4
BITMAP
82
84
88
90
A0
C0
A0
90
88
84
82
00
10
10
20
ENDCHAR
STARTCHAR partialdiff
ENCODING 182
SWIDTH 500 0
DWIDTH 9 0
BBX 6 11 2 0
BITMAP
60
10
08
04
34
4C
84
84
84
88
70
ENDCHAR
STARTCHAR summation
ENCODING 183
SWIDTH 500 0
DWIDTH 9 0
BBX 7 11 1 0
BITMAP
FE
42
20
10
08
04
08
10
20
42
FE
ENDCHAR
STARTCHAR product
ENCODING 184
SWIDTH 277 0
DWIDTH 5 0
BBX 3 11 1 0
BITMAP
C0
40
60
C0
40
40
40
40
40
40
40
ENDCHAR
STARTCHAR pi
ENCODING 185
SWIDTH 444 0
DWIDTH 8 0
BBX 6 15 1 -4
BITMAP
80
80
80
80
80
80
80
80
80
80
FC
00
10
10
20
ENDCHAR
STARTCHAR integral
ENCODING 186
SWIDTH 277 0
DWIDTH 5 0
BBX 3 15 1 -4
BITMAP
C0
40
40
40
40
40
40
40
40
40
40
00
20
20
40
ENDCHAR
STARTCHAR ordfeminine
ENCODING 187
SWIDTH 444 0
DWIDTH 8 0
BBX 6 12 1 0
BITMAP
08
88
88
90
80
80
80
80
80
80
80
FC
ENDCHAR
STARTCHAR ordmasculine
ENCODING 188
SWIDTH 277 0
DWIDTH 5 0
BBX 4 13 1 0
BITMAP
10
10
D0
60
40
40
40
40
40
40
40
40
40
ENDCHAR
STARTCHAR Omega
ENCODING 189
SWIDTH 444 0
DWIDTH 8 0
BBX 6 14 1 0
BITMAP
10
20
00
80
80
80
80
80
80
80
80
80
80
FC
ENDCHAR
STARTCHAR ae
ENCODING 190
SWIDTH 277 0
DWIDTH 5 0
BBX 3 14 1 0
BITMAP
20
40
00
C0
40
40
40
40
40
40
40
40
40
40
ENDCHAR
STARTCHAR oslash
ENCODING 191
SWIDTH 555 0
DWIDTH 10 0
BBX 8 15 1 -4
BITMAP
C1
C1
A1
A1
91
89
89
85
83
83
81
00
08
08
10
ENDCHAR
STARTCHAR questiondown
ENCODING 192
SWIDTH 444 0
DWIDTH 8 0
BBX 6 12 1 -4
BITMAP
B8
C4
84
84
84
84
84
84
00
10
10
20
ENDCHAR
STARTCHAR exclamdown
ENCODING 193
SWIDTH 555 0
DWIDTH 10 0
BBX 8 14 1 0
BITMAP
04
08
00
C1
C1
A1
A1
91
89
89
85
83
83
81
ENDCHAR
STARTCHAR logicalnot
ENCODING 194
SWIDTH 444 0
DWIDTH 8 0
BBX 6 3 1 3
BITMAP
FC
04
04
ENDCHAR
STARTCHAR radical
ENCODING 195
SWIDTH 666 0
DWIDTH 12 0
BBX 10 11 1 0
BITMAP
00C0
0100
0100
0200
0200
0400
C400
2800
2800
1000
1000
ENDCHAR
STARTCHAR florin
ENCODING 196
SWIDTH 444 0
DWIDTH 8 0
BBX 6 11 1 0
BITMAP
10
20
00
B8
C4
84
84
84
84
84
84
ENDCHAR
STARTCHAR approxequal
ENCODING 197
SWIDTH 555 0
DWIDTH 10 0
BBX 8 14 1 0
BITMAP
24
18
00
C1
C1
A1
A1
91
89
89
85
83
83
81
ENDCHAR
STARTCHAR Delta
ENCODING 198
SWIDTH 611 0
DWIDTH 11 0
BBX 9 10 1 0
BITMAP
0800
0800
1400
1400
2200
2200
4100
4100
8080
FF80
ENDCHAR
STARTCHAR guillemotleft
ENCODING 199
SWIDTH 500 0
DWIDTH 9 0
BBX 7 7 1 0
BITMAP
12
24
48
90
48
24
12
ENDCHAR
STARTCHAR guillemotright
ENCODING 200
SWIDTH 500 0
DWIDTH 9 0
BBX 7 7 1 0
BITMAP
90
48
24
12
24
48
90
ENDCHAR
STARTCHAR ellipsis
ENCODING 201
SWIDTH 555 0
DWIDTH 10 0
BBX 7 1 2 0
BITMAP
92
ENDCHAR
STARTCHAR nbspace
ENCODING 202
SWIDTH 500 0
DWIDTH 9 0
BBX 0 0 0 -4
BITMAP
ENDCHAR
STARTCHAR Agrave
ENCODING 203
SWIDTH 444 0
DWIDTH 8 0
BBX 6 11 1 0
BITMAP
50
20
00
B8
C4
84
84
84
84
84
84
ENDCHAR
STARTCHAR Atilde
ENCODING 204
SWIDTH 555 0
DWIDTH 10 0
BBX 8 14 1 0
BITMAP
12
24
00
3C
42
81
81
81
81
81
81
81
42
3C
ENDCHAR
STARTCHAR Otilde
ENCODING 205
SWIDTH 555 0
DWIDTH 10 0
BBX 8 14 1 0
BITMAP
32
4C
00
3C
42
81
81
81
81
81
81
81
42
3C
ENDCHAR
STARTCHAR OE
ENCODING 206
SWIDTH 500 0
DWIDTH 9 0
BBX 7 11 1 0
BITMAP
12
24
00
38
44
82
82
82
82
44
38
ENDCHAR
STARTCHAR oe
ENCODING 207
SWIDTH 555 0
DWIDTH 10 0
BBX 8 13 1 0
BITMAP
7E
00
3C
42
81
81
81
81
81
81
81
42
3C
ENDCHAR
STARTCHAR endash
ENCODING 208
SWIDTH 388 0
DWIDTH 7 0
BBX 5 1 1 4
BITMAP
F8
ENDCHAR
STARTCHAR emdash
ENCODING 209
SWIDTH 555 0
DWIDTH 10 0
BBX 10 1 0 4
BITMAP
FFC0
ENDCHAR
STARTCHAR quotedblleft
ENCODING 210
SWIDTH 444 0
DWIDTH 8 0
BBX 5 4 1 7
BITMAP
48
90
90
90
ENDCHAR
STARTCHAR quotedblright
ENCODING 211
SWIDTH 444 0
DWIDTH 8 0
BBX 5 4 2 7
BITMAP
48
48
48
90
ENDCHAR
STARTCHAR quoteleft
ENCODING 212
SWIDTH 222 0
DWIDTH 4 0
BBX 2 4 1 7
BITMAP
40
80
80
80
ENDCHAR
STARTCHAR quoteright
ENCODING 213
SWIDTH 222 0
DWIDTH 4 0
BBX 2 4 1 7
BITMAP
40
40
40
80
ENDCHAR
STARTCHAR divide
ENCODING 214
SWIDTH 500 0
DWIDTH 9 0
BBX 7 5 1 3
BITMAP
10
00
FE
00
10
ENDCHAR
STARTCHAR lozenge
ENCODING 215
SWIDTH 555 0
DWIDTH 10 0
BBX 9 9 0 0
BITMAP
0800
1400
2200
4100
8080
4100
2200
1400
0800
ENDCHAR
STARTCHAR ydieresis
ENCODING 216
SWIDTH 500 0
DWIDTH 9 0
BBX 7 11 1 0
BITMAP
FE
00
00
38
44
82
82
82
82
44
38
ENDCHAR
STARTCHAR Ydieresis
ENCODING 217
SWIDTH 555 0
DWIDTH 10 0
BBX 8 14 1 0
BITMAP
10
20
00
F8
84
82
82
82
84
F8
88
84
82
81
ENDCHAR
STARTCHAR fraction
ENCODING 218
SWIDTH 388 0
DWIDTH 7 0
BBX 6 11 1 0
BITMAP
10
20
00
B8
C4
80
80
80
80
80
80
ENDCHAR
STARTCHAR currency
ENCODING 219
SWIDTH 555 0
DWIDTH 10 0
BBX 8 14 1 0
BITMAP
48
30
00
F8
84
82
82
82
84
F8
88
84
82
81
ENDCHAR
STARTCHAR guilsinglleft
ENCODING 220
SWIDTH 444 0
DWIDTH 8 0
BBX 6 11 1 0
BITMAP
04
08
10
20
40
80
40
20
10
08
04
ENDCHAR
STARTCHAR guilsinglright
ENCODING 221
SWIDTH 444 0
DWIDTH 8 0
BBX 6 11 1 0
BITMAP
80
40
20
10
08
04
08
10
20
40
80
ENDCHAR
STARTCHAR fi
ENCODING 222
SWIDTH 388 0
DWIDTH 7 0
BBX 6 11 1 0
BITMAP
50
20
00
B8
C4
80
80
80
80
80
80
ENDCHAR
STARTCHAR fl
ENCODING 223
SWIDTH 555 0
DWIDTH 10 0
BBX 8 15 1 -4
BITMAP
F8
84
82
82
82
84
F8
88
84
82
81
00
10
10
20
ENDCHAR
STARTCHAR daggerdbl
ENCODING 224
SWIDTH 388 0
DWIDTH 7 0
BBX 6 12 1 -4
BITMAP
B8
C4
80
80
80
80
80
80
00
20
20
40
ENDCHAR
STARTCHAR periodcentered
ENCODING 225
SWIDTH 500 0
DWIDTH 9 0
BBX 7 14 1 0
BITMAP
28
10
00
38
44
82
80
40
38
04
02
82
44
38
ENDCHAR
STARTCHAR quotesinglbase
ENCODING 226
SWIDTH 222 0
DWIDTH 4 0
BBX 2 4 1 -3
BITMAP
40
40
40
80
ENDCHAR
STARTCHAR quotedblbase
ENCODING 227
SWIDTH 444 0
DWIDTH 8 0
BBX 5 4 2 -3
BITMAP
48
48
48
90
ENDCHAR
STARTCHAR perthousand
ENCODING 228
SWIDTH 444 0
DWIDTH 8 0
BBX 6 11 1 0
BITMAP
48
30
00
78
84
80
78
04
04
84
78
ENDCHAR
STARTCHAR Acircumflex
ENCODING 229
SWIDTH 500 0
DWIDTH 9 0
BBX 7 14 1 0
BITMAP
08
10
00
38
44
82
80
40
38
04
02
82
44
38
ENDCHAR
STARTCHAR Ecircumflex
ENCODING 230
SWIDTH 444 0
DWIDTH 8 0
BBX 6 11 1 0
BITMAP
10
20
00
78
84
80
78
04
04
84
78
ENDCHAR
STARTCHAR Aacute
ENCODING 231
SWIDTH 611 0
DWIDTH 11 0
BBX 9 14 1 0
BITMAP
0400
0800
0000
0800
0800
0800
1400
1400
2200
2200
7F00
4100
8080
8080
ENDCHAR
STARTCHAR Edieresis
ENCODING 232
SWIDTH 500 0
DWIDTH 9 0
BBX 7 14 1 0
BITMAP
28
10
00
FE
10
10
10
10
10
10
10
10
10
10
ENDCHAR
STARTCHAR Egrave
ENCODING 233
SWIDTH 388 0
DWIDTH 7 0
BBX 5 14 1 0
BITMAP
08
08
08
50
40
40
F0
40
40
40
40
40
48
30
ENDCHAR
STARTCHAR Iacute
ENCODING 234
SWIDTH 277 0
DWIDTH 5 0
BBX 2 14 2 0
BITMAP
40
80
00
80
80
80
80
80
80
80
80
80
80
80
ENDCHAR
STARTCHAR Icircumflex
ENCODING 235
SWIDTH 500 0
DWIDTH 9 0
BBX 7 14 1 0
BITMAP
28
10
00
FE
02
04
08
08
10
20
20
40
80
FE
ENDCHAR
STARTCHAR Idieresis
ENCODING 236
SWIDTH 444 0
DWIDTH 8 0
BBX 6 11 1 0
BITMAP
48
30
00
FC
04
08
10
20
40
80
FC
ENDCHAR
STARTCHAR Igrave
ENCODING 237
SWIDTH 555 0
DWIDTH 10 0
BBX 8 13 1 0
BITMAP
7E
00
81
81
81
81
81
81
81
81
81
42
3C
ENDCHAR
STARTCHAR Oacute
ENCODING 238
SWIDTH 555 0
DWIDTH 10 0
BBX 8 14 1 0
BITMAP
08
10
00
3C
42
81
81
81
81
81
81
81
42
3C
ENDCHAR
STARTCHAR Ocircumflex
ENCODING 239
SWIDTH 555 0
DWIDTH 10 0
BBX 8 14 1 0
BITMAP
18
24
00
3C
42
81
81
81
81
81
81
81
42
3C
ENDCHAR
STARTCHAR apple
ENCODING 240
SWIDTH 444 0
DWIDTH 8 0
BBX 6 11 1 0
BITMAP
FC
00
00
84
84
84
84
84
84
8C
74
ENDCHAR
STARTCHAR Ograve
ENCODING 241
SWIDTH 555 0
DWIDTH 10 0
BBX 8 14 1 0
BITMAP
18
24
24
99
81
81
81
81
81
81
81
81
42
3C
ENDCHAR
STARTCHAR Uacute
ENCODING 242
SWIDTH 555 0
DWIDTH 10 0
BBX 8 14 1 0
BITMAP
08
10
00
81
81
81
81
81
81
81
81
81
42
3C
ENDCHAR
STARTCHAR Ucircumflex
ENCODING 243
SWIDTH 444 0
DWIDTH 8 0
BBX 6 12 1 0
BITMAP
30
48
48
30
84
84
84
84
84
84
8C
74
ENDCHAR
STARTCHAR Ugrave
ENCODING 244
SWIDTH 555 0
DWIDTH 10 0
BBX 8 14 1 0
BITMAP
12
24
00
81
81
81
81
81
81
81
81
81
42
3C
ENDCHAR
STARTCHAR dotlessi
ENCODING 245
SWIDTH 444 0
DWIDTH 8 0
BBX 6 11 1 0
BITMAP
24
48
00
84
84
84
84
84
84
8C
74
ENDCHAR
STARTCHAR circumflex
ENCODING 246
SWIDTH 555 0
DWIDTH 10 0
BBX 8 14 1 -3
BITMAP
81
81
81
81
81
81
81
81
81
42
3C
10
20
18
ENDCHAR
STARTCHAR tilde
ENCODING 247
SWIDTH 444 0
DWIDTH 8 0
BBX 6 11 1 -3
BITMAP
84
84
84
84
84
84
8C
74
10
20
18
ENDCHAR
STARTCHAR macron
ENCODING 248
SWIDTH 500 0
DWIDTH 9 0
BBX 7 14 1 0
BITMAP
08
10
00
82
82
44
44
28
28
10
10
10
10
10
ENDCHAR
STARTCHAR breve
ENCODING 249
SWIDTH 500 0
DWIDTH 9 0
BBX 7 15 1 -4
BITMAP
08
10
00
82
82
44
44
28
28
10
10
20
20
40
40
ENDCHAR
STARTCHAR dotaccent
ENCODING 250
SWIDTH 500 0
DWIDTH 9 0
BBX 7 15 1 -4
BITMAP
80
80
80
84
88
90
A0
D0
88
84
82
00
10
10
20
ENDCHAR
STARTCHAR ring
ENCODING 251
SWIDTH 500 0
DWIDTH 9 0
BBX 7 14 1 0
BITMAP
10
10
00
FE
02
04
08
08
10
20
20
40
80
FE
ENDCHAR
STARTCHAR cedilla
ENCODING 252
SWIDTH 444 0
DWIDTH 8 0
BBX 7 11 0 0
BITMAP
40
40
40
40
60
C0
40
40
40
40
7E
ENDCHAR
STARTCHAR hungarumlaut
ENCODING 253
SWIDTH 444 0
DWIDTH 8 0
BBX 6 11 1 0
BITMAP
20
20
00
FC
04
08
10
20
40
80
FC
ENDCHAR
STARTCHAR ogonek
ENCODING 254
SWIDTH 555 0
DWIDTH 10 0
BBX 8 15 1 -4
BITMAP
3C
42
80
80
80
8F
81
81
81
42
3C
00
08
08
10
ENDCHAR
STARTCHAR caron
ENCODING 255
SWIDTH 388 0
DWIDTH 7 0
BBX 3 2 2 12
BITMAP
A0
40
ENDCHAR
ENDFONT
